<svg xmlns="http://www.w3.org/2000/svg" width="1024" height="1024" viewBox="0 0 1024 1024">
    <defs><linearGradient id="bg" x1="0" y1="0" x2="1" y2="1"><stop stop-color="#FFF7EF"/><stop offset="1" stop-color="#FFFFFF"/></linearGradient><linearGradient id="g" x1="260" y1="120" x2="760" y2="880"><stop stop-color="#FF8A22"/><stop offset="1" stop-color="#FF5A00"/></linearGradient><filter id="s" x="-20%" y="-20%" width="140%" height="140%"><feDropShadow dx="0" dy="24" stdDeviation="30" flood-color="#ff7a18" flood-opacity=".18"/></filter></defs>
    <path filter="url(#s)" d="M512 88c-116 0-210 94-210 210 0 79 44 148 108 184v196c0 34 22 64 54 74l48 184 48-184c32-10 54-40 54-74V482c64-36 108-105 108-184 0-116-94-210-210-210Z" fill="none" stroke="url(#g)" stroke-width="54" stroke-linejoin="round"/>
    <path d="M512 212v510M424 352h176" stroke="url(#g)" stroke-width="54" stroke-linecap="round"/>
    <circle cx="512" cy="352" r="48" fill="url(#g)"/>
    </svg>