<svg xmlns="http://www.w3.org/2000/svg" width="24" height="24" viewBox="0 0 24 24" fill="none" stroke-width="1.8" stroke-linecap="round" stroke-linejoin="round" stroke="black"><path d="M12 15.5A3.5 3.5 0 1 0 12 8a3.5 3.5 0 0 0 0 7.5Z" /><path d="M19.4 15a1.7 1.7 0 0 0 .3 1.9l.1.1-2 3.4-.2-.1a1.7 1.7 0 0 0-2 .3 1.7 1.7 0 0 0-.5 1.9H9a1.7 1.7 0 0 0-.5-1.9 1.7 1.7 0 0 0-2-.3l-.2.1-2-3.4.1-.1A1.7 1.7 0 0 0 4.6 15 1.7 1.7 0 0 0 3 13.7v-3.4A1.7 1.7 0 0 0 4.6 9a1.7 1.7 0 0 0-.3-1.9l-.1-.1 2-3.4.2.1a1.7 1.7 0 0 0 2-.3A1.7 1.7 0 0 0 9 1.5h6a1.7 1.7 0 0 0 .5 1.9 1.7 1.7 0 0 0 2 .3l.2-.1 2 3.4-.1.1A1.7 1.7 0 0 0 19.4 9 1.7 1.7 0 0 0 21 10.3v3.4A1.7 1.7 0 0 0 19.4 15Z" /></svg>